<svg height="464pt" viewBox="0 0 464 464" width="464pt" xmlns="http://www.w3.org/2000/svg"><path d="m317.601562 376-21.601562-72h-80l-21.601562 72h-18.398438v16h160v-16zm0 0" fill="#e0e0de"/><path d="m416 32h-320c-13.253906 0-24 10.746094-24 24v200h368v-200c0-13.253906-10.746094-24-24-24zm0 0" fill="#348fd9"/><path d="m400 32h16v224h-16zm0 0" fill="#3086cd"/><path d="m72 240h368v16h-368zm0 0" fill="#3086cd"/><path d="m72 280c0 13.253906 10.746094 24 24 24h320c13.253906 0 24-10.746094 24-24v-24h-368zm0 0" fill="#e0e0de"/><path d="m112 256v-232c0-13.253906 10.746094-24 24-24h240c13.253906 0 24 10.746094 24 24v232" fill="#60d1e0"/><path d="m112 256v-232c0-13.253906 10.746094-24 24-24h240c13.253906 0 24 10.746094 24 24v232" fill="#60d1e0"/><path d="m376 0h-32l-232 232v24h288v-232c0-13.253906-10.746094-24-24-24zm0 0" fill="#5ac6d4"/><path d="m136 24h16v16h-16zm0 0" fill="#419bc2"/><path d="m168 24h16v16h-16zm0 0" fill="#419bc2"/><path d="m200 24h16v16h-16zm0 0" fill="#419bc2"/><path d="m312.566406 79.433594-56.566406 56.566406 56.566406 56.566406c31.242188-31.238281 31.242188-81.894531 0-113.132812zm0 0" fill="#ffb531"/><path d="m256 136-56.566406 56.566406c31.238281 31.242188 81.894531 31.242188 113.132812 0zm0 0" fill="#7eb457"/><path d="m256 56c-44.183594 0-80 35.816406-80 80h80l56.566406-56.566406c-14.984375-15.027344-35.34375-23.460938-56.566406-23.433594zm0 0" fill="#e94f4f"/><path d="m176 136c-.027344 21.222656 8.40625 41.582031 23.433594 56.566406l56.566406-56.566406zm0 0" fill="#348fd9"/><path d="m136 56h32v16h-32zm0 0" fill="#419bc2"/><path d="m136 88h24v16h-24zm0 0" fill="#419bc2"/><path d="m344 48h32v16h-32zm0 0" fill="#419bc2"/><path d="m352 80h24v16h-24zm0 0" fill="#419bc2"/><path d="m344 200h32v16h-32zm0 0" fill="#419bc2"/><path d="m352 168h24v16h-24zm0 0" fill="#419bc2"/><path d="m300.800781 320-4.800781-16h-80l-4.800781 16zm0 0" fill="#d6d6d4"/><path d="m464 464h-184l-24-16 24-16h184zm0 0" fill="#348fd9"/><path d="m440 464h-16v-56h-64v-16h72c4.417969 0 8 3.582031 8 8zm0 0" fill="#e0e0de"/><path d="m112 240h288v16h-288zm0 0" fill="#5ac6d4"/><path d="m24 160h176c13.253906 0 24 10.746094 24 24v256c0 13.253906-10.746094 24-24 24h-176c-13.253906 0-24-10.746094-24-24v-256c0-13.253906 10.746094-24 24-24zm0 0" fill="#e94f4f"/><path d="m11.566406 460.433594c3.734375 2.316406 8.039063 3.550781 12.433594 3.566406h176c13.253906 0 24-10.746094 24-24v-192zm0 0" fill="#e04646"/><path d="m32 192h160v48h-160zm0 0" fill="#60d1e0"/><path d="m32 192h160v16h-160zm0 0" fill="#5ac6d4"/><path d="m160 336h32v96h-32zm0 0" fill="#348fd9"/><g fill="#ffb531"><path d="m32 272h32v32h-32zm0 0"/><path d="m96 272h32v32h-32zm0 0"/><path d="m160 272h32v32h-32zm0 0"/><path d="m32 336h32v32h-32zm0 0"/><path d="m96 336h32v32h-32zm0 0"/><path d="m32 400h32v32h-32zm0 0"/><path d="m96 400h32v32h-32zm0 0"/></g></svg>