<svg height="511pt" viewBox="1 -1 511.99998 511" width="511pt" xmlns="http://www.w3.org/2000/svg"><path d="m0 67.476562h459.035156v370.761719h-459.035156zm0 0" fill="#8dc79d"/><path d="m512 508.855469h-176.550781l176.550781-185.378907zm0 0" fill="#f3af3e"/><path d="m476.691406 473.546875h-61.792968l61.792968-61.792969zm0 0" fill="#fff"/><path d="m308.964844 226.375v8.828125h-105.929688v-8.828125l52.964844-52.964844zm0 0" fill="#b94137"/><path d="m469.542969 2.847656 25.917969 23.980469c3.578124 3.3125 3.792968 8.898437.484374 12.476563l-119.910156 129.585937-38.875-35.972656 119.90625-129.585938c3.3125-3.578125 8.898438-3.792969 12.476563-.484375zm0 0" fill="#3b869e"/><path d="m326.621094 183.304688 10.539062-50.378907 38.878906 35.972657zm0 0" fill="#69b0bb"/><path d="m469.539062 2.851562 25.917969 23.980469c3.578125 3.3125 3.796875 8.898438.484375 12.476563l-17.984375 19.4375-38.878906-35.972656 17.988281-19.4375c3.308594-3.578126 8.894532-3.796876 12.472656-.484376zm0 0" fill="#69b0bb"/><path d="m461.425781 124.433594c-4.875.003906-8.832031-3.945313-8.835937-8.820313 0-2.222656.835937-4.367187 2.347656-6l30.015625-32.398437-51.863281-47.960938c-3.582032-3.308594-3.804688-8.894531-.5-12.476562 3.308594-3.585938 8.894531-3.808594 12.480468-.5l58.3125 53.953125c3.585938 3.308593 3.808594 8.890625.503907 12.476562-.003907 0-.003907.003907-.007813.007813l-35.972656 38.839844c-1.664062 1.824218-4.011719 2.867187-6.480469 2.878906zm0 0" fill="#1f6c8c"/><path d="m35.308594 23.339844h8.828125c19.503906 0 35.3125 15.808594 35.3125 35.3125v379.585937h-79.449219v-379.585937c0-19.503906 15.808594-35.3125 35.308594-35.3125zm0 0" fill="#99d8aa"/><path d="m79.449219 438.238281v-8.828125c0-19.503906-15.808594-35.3125-35.3125-35.3125h-8.824219c-19.503906 0-35.3125 15.808594-35.3125 35.3125v8.828125zm0 0" fill="#8dc79d"/><path d="m191.933594 418.421875 13.570312 11.296875c7.492188 6.238281 8.511719 17.371094 2.273438 24.863281l-45.179688 54.277344-40.707031-33.882813 45.179687-54.277343c6.238282-7.496094 17.367188-8.515625 24.863282-2.277344zm0 0" fill="#a8a8a8"/><path d="m121.890625 474.953125 33.882813-40.710937 40.710937 33.882812-33.882813 40.707031zm0 0" fill="#6cbae5"/><path d="m247.171875 129.269531h17.65625v17.65625h-17.65625zm0 0" fill="#6b9777"/><path d="m247.171875 358.789062h17.65625v17.65625h-17.65625zm0 0" fill="#6b9777"/><path d="m203.035156 226.375h105.929688v105.929688h-105.929688zm0 0" fill="#eac25e"/><path d="m379.585938 341.132812h-247.171876c-4.875 0-8.828124-3.953124-8.828124-8.828124s3.953124-8.828126 8.828124-8.828126h247.171876c4.875 0 8.828124 3.953126 8.828124 8.828126s-3.953124 8.828124-8.828124 8.828124zm0 0" fill="#6b9777"/></svg>