<?xml version="1.0" encoding="iso-8859-1"?>
<!-- Generator: Adobe Illustrator 22.1.0, SVG Export Plug-In . SVG Version: 6.00 Build 0)  -->
<svg xmlns="http://www.w3.org/2000/svg" xmlns:xlink="http://www.w3.org/1999/xlink" version="1.1" id="Layer_1_1_" x="0px" y="0px" viewBox="0 0 64 64" style="enable-background:new 0 0 64 64;" xml:space="preserve" width="512" height="512">
<g>
	<rect x="9" y="21" style="fill:#F0BC5E;" width="20" height="10"/>
	<polygon style="fill:#F0BC5E;" points="47,22 47,5 35,5 35,31 47,31 55,31 55,22  "/>
	<g>
		<polygon points="34,35 59,35 59,11 57,11 57,33 34,33   "/>
		<path d="M59,7V1H36c-1.641,0-3.088,0.806-4,2.031C31.088,1.806,29.641,1,28,1H5v6H1v29c0,1.654,1.346,3,3,3h22v-2H4    c-0.551,0-1-0.448-1-1V9h2v26h25v-2H7V3h21c1.654,0,3,1.346,3,3v26v1h2v-1V6c0-1.654,1.346-3,3-3h21v6h4v27c0,0.552-0.449,1-1,1    H37.994v2H60c1.654,0,3-1.346,3-3V7H59z"/>
		<path d="M52,15c-0.551,0-1-0.448-1-1h-2c0,1.302,0.839,2.402,2,2.816V19h2v-2.184c1.161-0.414,2-1.514,2-2.816    c0-1.654-1.346-3-3-3c-0.551,0-1-0.448-1-1s0.449-1,1-1s1,0.448,1,1h2c0-1.302-0.839-2.402-2-2.816V5h-2v2.184    C49.839,7.598,49,8.698,49,10c0,1.654,1.346,3,3,3c0.551,0,1,0.448,1,1S52.551,15,52,15z"/>
		<rect x="35" y="5" width="2" height="2"/>
		<rect x="39" y="5" width="8" height="2"/>
		<rect x="35" y="9" width="12" height="2"/>
		<rect x="35" y="13" width="12" height="2"/>
		<rect x="35" y="17" width="12" height="2"/>
		<rect x="39" y="21" width="16" height="2"/>
		<rect x="35" y="21" width="2" height="2"/>
		<rect x="35" y="25" width="20" height="2"/>
		<rect x="53" y="29" width="2" height="2"/>
		<rect x="35" y="29" width="16" height="2"/>
		<polygon points="29,17 27,17 27,13 25,13 25,17 23,17 23,7 21,7 21,17 19,17 19,9 17,9 17,17 15,17 15,12 13,12 13,17 11,17 11,5     9,5 9,19 29,19   "/>
		<rect x="9" y="21" width="2" height="2"/>
		<rect x="13" y="21" width="16" height="2"/>
		<rect x="9" y="25" width="2" height="2"/>
		<rect x="13" y="25" width="16" height="2"/>
		<rect x="9" y="29" width="2" height="2"/>
		<rect x="13" y="29" width="16" height="2"/>
	</g>
	<path style="fill:#F0BC5E;" d="M35,50v-2.823c1.789-1.037,3-2.96,3-5.177l0-3.722c0-3.3-2.543-6.191-5.842-6.276   C28.772,31.915,26,34.634,26,38v4c0,2.217,1.211,4.139,3,5.177V50l-7.05,2.564C19.578,53.426,18,55.68,18,58.203V63h28v-4.797   c0-2.523-1.578-4.777-3.95-5.639L35,50z"/>
</g>
</svg>
