<?xml version="1.0" encoding="iso-8859-1"?>
<!-- Generator: Adobe Illustrator 19.0.0, SVG Export Plug-In . SVG Version: 6.00 Build 0)  -->
<svg version="1.1" id="Capa_1" xmlns="http://www.w3.org/2000/svg" xmlns:xlink="http://www.w3.org/1999/xlink" x="0px" y="0px"
	 viewBox="0 0 464 464" style="enable-background:new 0 0 464 464;" xml:space="preserve">
<path style="fill:#E6E6E6;" d="M288,432H0V80l48-48h240V432z"/>
<path style="fill:#0071BC;" d="M48,32v48H0L48,32z"/>
<path style="fill:#29ABE2;" d="M184,83.056V64h-16v19.056l-24,12l-24-12V64h-16v19.056L76.424,96.84
	c-2.712,1.355-4.425,4.128-4.424,7.16v32H56v16h22.112L104,164.944V184h16v-19.056l24-12l24,12V184h16v-19.056l27.576-13.744
	c2.725-1.362,4.441-4.153,4.424-7.2v-32h16V96h-22.112L184,83.056z M88,108.944l24-12l24,12v30.112l-24,12l-24-12V108.944z
	 M200,139.056l-24,12l-24-12v-30.112l24-12l24,12V139.056z"/>
<g>
	<path style="fill:#0071BC;" d="M216,64h16v16h-16V64z"/>
	<path style="fill:#0071BC;" d="M56,168h16v16H56V168z"/>
</g>
<path style="fill:#B3B3B3;" d="M448,379.392V432h-32l-22.256-33.376L448,379.392z"/>
<g>
	<path style="fill:#999999;" d="M352,72c-21.544-0.168-43.031,2.249-64,7.2v65.6c20.969,4.951,42.456,7.368,64,7.2
		c61.856,0,112-17.912,112-40S413.856,72,352,72L352,72z"/>
	<path style="fill:#999999;" d="M352,216c-21.544,0.168-43.031-2.249-64-7.2v64c20.969,4.951,42.456,7.368,64,7.2
		c61.856,0,112-17.912,112-40v-64C464,198.088,413.856,216,352,216z"/>
</g>
<g>
	<path style="fill:#666666;" d="M352,152c-21.544,0.168-43.031-2.249-64-7.2v64c20.969,4.951,42.456,7.368,64,7.2
		c61.856,0,112-17.912,112-40v-64C464,134.088,413.856,152,352,152z"/>
	<path style="fill:#666666;" d="M352,280c-21.544,0.168-43.031-2.249-64-7.2v64c20.969,4.951,42.456,7.368,64,7.2
		c61.856,0,112-17.912,112-40v-64C464,262.088,413.856,280,352,280z"/>
</g>
<g>
	<path style="fill:#999999;" d="M352,344c-21.544,0.168-43.031-2.249-64-7.2v64c20.969,4.951,42.456,7.368,64,7.2
		c61.856,0,112-17.912,112-40v-64C464,326.088,413.856,344,352,344z"/>
	<path style="fill:#999999;" d="M40,344h208v16H40V344z"/>
	<path style="fill:#999999;" d="M40,376h208v16H40V376z"/>
	<path style="fill:#999999;" d="M88,312h160v16H88V312z"/>
	<path style="fill:#999999;" d="M56,312h16v16H56V312z"/>
</g>
<path style="fill:#29ABE2;" d="M48,216h192v64H48V216z"/>
<g>
	<path style="fill:#80CAEC;" d="M200,240h16v16h-16V240z"/>
	<path style="fill:#80CAEC;" d="M168,240h16v16h-16V240z"/>
	<path style="fill:#80CAEC;" d="M136,240h16v16h-16V240z"/>
</g>
<g>
	<path style="fill:#FBB03B;" d="M344,240h16v16h-16V240z"/>
	<path style="fill:#FBB03B;" d="M312,240h16v16h-16V240z"/>
	<path style="fill:#FBB03B;" d="M376,240h16v16h-16V240z"/>
	<path style="fill:#FBB03B;" d="M344,176h16v16h-16V176z"/>
	<path style="fill:#FBB03B;" d="M312,176h16v16h-16V176z"/>
	<path style="fill:#FBB03B;" d="M376,176h16v16h-16V176z"/>
	<path style="fill:#FBB03B;" d="M344,304h16v16h-16V304z"/>
	<path style="fill:#FBB03B;" d="M312,304h16v16h-16V304z"/>
	<path style="fill:#FBB03B;" d="M376,304h16v16h-16V304z"/>
	<path style="fill:#FBB03B;" d="M344,368h16v16h-16V368z"/>
	<path style="fill:#FBB03B;" d="M312,368h16v16h-16V368z"/>
	<path style="fill:#FBB03B;" d="M376,368h16v16h-16V368z"/>
</g>
<g>
</g>
<g>
</g>
<g>
</g>
<g>
</g>
<g>
</g>
<g>
</g>
<g>
</g>
<g>
</g>
<g>
</g>
<g>
</g>
<g>
</g>
<g>
</g>
<g>
</g>
<g>
</g>
<g>
</g>
</svg>
