<?xml version="1.0" encoding="UTF-8"?>
<svg xmlns="http://www.w3.org/2000/svg" xmlns:xlink="http://www.w3.org/1999/xlink" width="512" height="512" viewBox="0 0 58 58" version="1.1"><!-- Generator: Sketch 51.3 (57544) - http://www.bohemiancoding.com/sketch --><title>022 - RGB Monitor</title><desc>Created with Sketch.</desc><defs/><g id="Page-1" stroke="none" stroke-width="1" fill="none" fill-rule="evenodd"><g id="022---RGB-Monitor" fill-rule="nonzero"><rect id="Rectangle-path" fill="#285680" x="22" y="43.546" width="14" height="10.342"/><path d="M0,35 L58,35 L58,44 C58,45.1045695 57.1045695,46 56,46 L2,46 C0.8954305,46 2.22044605e-16,45.1045695 0,44 L0,35 Z" id="Shape" fill="#4482C3"/><path d="M21,52 L37,52 C39.209139,52 41,53.790861 41,56 L41,57 C41,57.5522847 40.5522847,58 40,58 L18,58 C17.4477153,58 17,57.5522847 17,57 L17,56 C17,53.790861 18.790861,52 21,52 Z" id="Shape" fill="#4482C3"/><path d="M31,43 L27,43 C26.4477153,43 26,42.5522847 26,42 C26,41.4477153 26.4477153,41 27,41 L31,41 C31.5522847,41 32,41.4477153 32,42 C32,42.5522847 31.5522847,43 31,43 Z" id="Shape" fill="#285680"/><path d="M58,56 L58,57 C58,57.5522847 57.5522847,58 57,58 L47,58 C46.4477153,58 46,57.5522847 46,57 L46,56 C45.9988381,53.0729672 48.1132211,50.5737665 51,50.09 C51.6612656,49.9699879 52.3387344,49.9699879 53,50.09 C54.2306896,50.2861936 55.3661698,50.8714565 56.24,51.76 C57.3708021,52.8806101 58.0048139,54.4080021 58,56 Z" id="Shape" fill="#4482C3"/><path d="M53,50.09 L53,53 C53,53.5522847 52.5522847,54 52,54 C51.4477153,54 51,53.5522847 51,53 L51,50.09 C51.6612656,49.9699879 52.3387344,49.9699879 53,50.09 Z" id="Shape" fill="#285680"/><path d="M58,2 L58.0000586,38 L0,38 L0,2 C0.00329480111,0.896798134 0.896798134,0.00329480111 2,0 L56,0 C56.6469236,0.00108069401 57.2537022,0.313776375 57.63,0.84 C57.8736043,1.17745523 58.0032195,1.5838165 58,2 Z" id="Shape" fill="#B0D3F0"/><path d="M58,2 L58.0000586,38 L0,38 C0,5.49 41.06,0.69 54.74,0 L56,0 C56.6469236,0.00108069401 57.2537022,0.313776375 57.63,0.84 C57.8736043,1.17745523 58.0032195,1.5838165 58,2 Z" id="Shape" fill="#90BAE1"/><path d="M44,24 C44.0029491,27.5505934 41.9165323,30.7705442 38.6746372,32.2185907 C35.4327421,33.6666372 31.6423287,33.0716705 29,30.7 C31.2948989,28.6447249 32.3810771,25.5596774 31.88,22.52 C35.0260661,21.4606085 37.3326551,18.7542107 37.88,15.48 C41.5388031,16.7099385 44.0026518,20.1400024 44,24 Z" id="Shape" fill="#4FBA6F"/><path d="M32,24 C32.0027718,26.5592921 30.9109857,28.9976143 29,30.7 C26.7051011,28.6447249 25.6189229,25.5596774 26.12,22.52 C27.9866667,23.16 30.0133333,23.16 31.88,22.52 C31.9604765,23.009213 32.0006116,23.5042123 32,24 Z" id="Shape" fill="#9FC9D3"/><path d="M29,30.7 C26.280839,33.1384245 22.35716,33.6905564 19.0706603,32.0972359 C15.7841606,30.5039155 13.7873746,27.0814963 14.0175543,23.4363944 C14.247734,19.7912925 16.6591772,16.6472428 20.12,15.48 C20.6673449,18.7542107 22.9739339,21.4606085 26.12,22.52 C25.6189229,25.5596774 26.7051011,28.6447249 29,30.7 Z" id="Shape" fill="#2FA8CC"/><path d="M29,17.3 C27.4728056,18.6606524 26.4566241,20.5024812 26.12,22.52 C22.9739339,21.4606085 20.6673449,18.7542107 20.12,15.48 C21.0467263,15.1613465 22.0200199,14.9991309 23,15 C25.2156656,14.9979997 27.3534056,15.8174667 29,17.3 Z" id="Shape" fill="#CC66A1"/><path d="M31.88,22.52 C30.0133333,23.16 27.9866667,23.16 26.12,22.52 C26.4566241,20.5024812 27.4728056,18.6606524 29,17.3 C30.5271944,18.6606524 31.5433759,20.5024812 31.88,22.52 Z" id="Shape" fill="#FFFFFF"/><path d="M37.88,15.48 C37.3326551,18.7542107 35.0260661,21.4606085 31.88,22.52 C31.5433759,20.5024812 30.5271944,18.6606524 29,17.3 C30.6465944,15.8174667 32.7843344,14.9979997 35,15 C35.9799801,14.9991309 36.9532737,15.1613465 37.88,15.48 Z" id="Shape" fill="#F3D55B"/><path d="M38,14 C38.0006116,14.4957877 37.9604765,14.990787 37.88,15.48 C36.9532737,15.1613465 35.9799801,14.9991309 35,15 C32.7843344,14.9979997 30.6465944,15.8174667 29,17.3 C27.3534056,15.8174667 25.2156656,14.9979997 23,15 C22.0200199,14.9991309 21.0467263,15.1613465 20.12,15.48 C19.5683881,12.1357697 20.9424069,8.76523155 23.6748523,6.75976564 C26.4072978,4.75429972 30.034735,4.45404206 33.0597341,5.98294097 C36.0847332,7.51183989 37.994241,10.6105873 38,14 Z" id="Shape" fill="#FF5364"/><path d="M6,5 L4,5 C3.44771525,5 3,4.55228475 3,4 C3,3.44771525 3.44771525,3 4,3 L6,3 C6.55228475,3 7,3.44771525 7,4 C7,4.55228475 6.55228475,5 6,5 Z" id="Shape" fill="#FFFFFF"/><path d="M16,5 L10,5 C9.44771525,5 9,4.55228475 9,4 C9,3.44771525 9.44771525,3 10,3 L16,3 C16.5522847,3 17,3.44771525 17,4 C17,4.55228475 16.5522847,5 16,5 Z" id="Shape" fill="#FFFFFF"/></g></g></svg>
