<?xml version="1.0" encoding="iso-8859-1"?>
<!-- Generator: Adobe Illustrator 19.0.0, SVG Export Plug-In . SVG Version: 6.00 Build 0)  -->
<svg version="1.1" id="Capa_1" xmlns="http://www.w3.org/2000/svg" xmlns:xlink="http://www.w3.org/1999/xlink" x="0px" y="0px"
	 viewBox="0 0 480 480" style="enable-background:new 0 0 480 480;" xml:space="preserve">
<path style="fill:#68E8BB;" d="M136.112,360c1.488-1.984,3.12-3.848,4.8-5.664c0.592-0.656,1.104-1.392,1.72-2.024
	s1.304-1.184,1.944-1.792c0.392-0.376,0.792-0.736,1.192-1.104c1.432-1.312,2.872-2.608,4.392-3.816
	c1.016-0.816,2.072-1.576,3.128-2.336c0.744-0.536,1.44-1.128,2.2-1.64c0.536-0.36,1.104-0.68,1.64-1.024
	c1.336-0.856,2.656-1.744,4.048-2.52c0.024-0.016,0.04-0.024,0.064-0.04c0.704-0.392,1.432-0.744,2.144-1.112
	c0.4-0.208,0.816-0.384,1.216-0.584c1.088-0.536,2.16-1.088,3.272-1.576c0.168-0.072,0.328-0.168,0.496-0.24
	c0.912-0.392,1.848-0.712,2.776-1.072c0.752-0.296,1.52-0.568,2.288-0.84c0.48-0.168,0.944-0.36,1.432-0.52
	c0.336-0.112,0.664-0.256,1-0.368c1.16-0.368,2.352-0.632,3.536-0.944c0.912-0.24,1.816-0.496,2.744-0.704h0.008l0,0
	c0.512-0.12,1.008-0.28,1.52-0.392c1.528-0.32,3.104-0.504,4.664-0.736c0.872-0.128,1.728-0.304,2.616-0.4
	c0.264-0.032,0.52-0.088,0.784-0.112c2.712-0.296,5.472-0.44,8.264-0.44h40c-35.344,0-64-28.656-64-64c0-5.536,0.776-10.88,2.096-16
	c7.112-27.592,32.088-48,61.904-48v-64V8C149.272,8,70.768,60.104,32.632,136c0,0,0,0,0,0.008
	c-7.728,15.384-13.8,31.736-17.976,48.84c-0.208,0.848-0.392,1.696-0.584,2.544c-0.752,3.224-1.432,6.464-2.048,9.736
	c-0.232,1.224-0.448,2.448-0.656,3.68c-0.512,2.968-0.944,5.968-1.336,8.976c-0.176,1.368-0.368,2.728-0.52,4.104
	c-0.344,3.056-0.6,6.136-0.824,9.224c-0.088,1.272-0.216,2.536-0.288,3.808C8.144,231.256,8,235.608,8,240
	c0,2.688,0.176,5.336,0.264,8c0.024,0.64,0.04,1.288,0.064,1.92c0.16,3.816,0.416,7.616,0.752,11.384
	c0.12,1.304,0.248,2.608,0.392,3.904c0.4,3.696,0.88,7.36,1.448,11.008c0.216,1.384,0.456,2.768,0.696,4.144
	c0.608,3.48,1.288,6.944,2.056,10.368c0.344,1.536,0.712,3.056,1.08,4.576c0.784,3.216,1.624,6.4,2.544,9.56
	c0.496,1.72,1.032,3.416,1.568,5.12c0.92,2.912,1.88,5.8,2.904,8.664c0.68,1.888,1.408,3.76,2.136,5.632
	c1.024,2.624,2.072,5.232,3.184,7.808c0.88,2.032,1.808,4.032,2.744,6.032c1.104,2.36,2.216,4.712,3.4,7.032
	c1.072,2.104,2.2,4.176,3.336,6.24c1.192,2.168,2.384,4.336,3.64,6.456c0.424,0.728,0.888,1.432,1.328,2.152
	c19.448,32.088,46.368,59.144,78.464,78.584V408C120,389.968,126.04,373.384,136.112,360z"/>
<path style="fill:#FFA244;" d="M178.096,248c-1.32,5.12-2.096,10.464-2.096,16c0,35.344,28.656,64,64,64s64-28.656,64-64
	c0-5.536-0.776-10.88-2.096-16c-7.112-27.592-32.088-48-61.904-48S185.216,220.408,178.096,248z"/>
<path style="fill:#17B2B0;" d="M471.32,223.112c-0.224-3.088-0.48-6.168-0.824-9.224c-0.152-1.376-0.344-2.736-0.52-4.104
	c-0.392-3.008-0.832-6-1.336-8.976c-0.208-1.232-0.432-2.456-0.656-3.68c-0.616-3.272-1.296-6.52-2.048-9.736
	c-0.2-0.848-0.384-1.704-0.584-2.544c-4.176-17.104-10.248-33.456-17.976-48.84c0,0,0,0,0-0.008C409.232,60.104,330.728,8,240,8v128
	v64c29.808,0,54.784,20.408,61.904,48c1.32,5.12,2.096,10.464,2.096,16c0,35.344-28.656,64-64,64h40
	c2.792,0,5.552,0.144,8.272,0.424c0.264,0.024,0.52,0.088,0.784,0.112c0.88,0.104,1.744,0.272,2.616,0.4
	c1.56,0.232,3.136,0.416,4.664,0.736c0.52,0.104,1.008,0.272,1.52,0.392l0,0h0.008c0.92,0.208,1.832,0.464,2.744,0.704
	c1.176,0.312,2.376,0.584,3.536,0.944c0.344,0.104,0.664,0.256,1,0.368c0.48,0.16,0.952,0.352,1.432,0.52
	c0.768,0.272,1.528,0.544,2.288,0.84c0.928,0.36,1.864,0.68,2.776,1.072c0.168,0.072,0.328,0.168,0.496,0.24
	c1.112,0.488,2.184,1.04,3.272,1.576c0.408,0.2,0.816,0.384,1.216,0.584c0.712,0.368,1.44,0.72,2.144,1.112
	c0.024,0.016,0.04,0.024,0.064,0.04c1.392,0.776,2.704,1.664,4.048,2.52c0.544,0.344,1.112,0.664,1.64,1.024
	c0.76,0.512,1.456,1.104,2.2,1.64c1.056,0.768,2.112,1.52,3.128,2.336c1.52,1.208,2.968,2.496,4.392,3.816
	c0.4,0.368,0.8,0.728,1.192,1.104c0.64,0.608,1.328,1.16,1.944,1.792s1.128,1.368,1.72,2.024c1.68,1.816,3.312,3.68,4.8,5.664
	C353.96,373.384,360,389.968,360,408v30.584c32.096-19.44,59.016-46.496,78.464-78.584h0.12c0.424-0.696,0.792-1.44,1.208-2.144
	c1.264-2.136,2.456-4.304,3.648-6.48c1.128-2.064,2.256-4.128,3.328-6.224c1.176-2.32,2.296-4.672,3.4-7.032
	c0.936-2,1.864-4,2.744-6.032c1.112-2.576,2.16-5.184,3.184-7.808c0.728-1.864,1.448-3.736,2.136-5.632
	c1.032-2.856,1.984-5.752,2.904-8.664c0.536-1.704,1.072-3.4,1.568-5.12c0.92-3.16,1.76-6.352,2.544-9.56
	c0.376-1.52,0.736-3.048,1.08-4.576c0.76-3.424,1.448-6.888,2.056-10.368c0.24-1.376,0.48-2.76,0.696-4.144
	c0.568-3.64,1.048-7.312,1.448-11.008c0.144-1.296,0.272-2.6,0.392-3.904c0.344-3.768,0.592-7.568,0.752-11.384
	c0.024-0.64,0.04-1.28,0.064-1.92c0.088-2.664,0.264-5.312,0.264-8c0-4.392-0.144-8.744-0.392-13.08
	C471.544,225.648,471.416,224.384,471.32,223.112z"/>
<path style="fill:#FFA244;" d="M343.888,360c-1.488-1.984-3.12-3.848-4.8-5.664c-1.104-1.192-2.224-2.376-3.384-3.512
	c-0.832-0.816-1.744-1.552-2.608-2.328c-2.296-2.056-4.688-4-7.208-5.784c-1.632-1.152-3.28-2.264-5-3.288
	c-1.224-0.736-2.432-1.504-3.696-2.168c-0.832-0.44-1.688-0.84-2.536-1.248c-1.736-0.84-3.504-1.624-5.312-2.344
	c-0.976-0.384-1.96-0.76-2.96-1.112c-1.776-0.624-3.584-1.168-5.408-1.664c-1.032-0.28-2.064-0.576-3.112-0.816h-0.008l0,0
	c-1.96-0.448-3.952-0.784-5.96-1.088c-0.616-0.096-1.216-0.208-1.84-0.288c-0.352-0.04-0.688-0.12-1.04-0.16
	c-2.96-0.328-5.96-0.536-9.016-0.536l-40,40l16,24v32l-16,16l-16-16v-32l16-24l-40-40c-3.056,0-6.056,0.208-9.016,0.544
	c-0.352,0.04-0.688,0.112-1.04,0.16c-0.616,0.08-1.224,0.192-1.84,0.288c-2.008,0.304-4.008,0.632-5.96,1.088l0,0h-0.008
	c-1.048,0.24-2.08,0.536-3.112,0.816c-1.824,0.496-3.632,1.04-5.408,1.664c-1,0.352-1.984,0.72-2.96,1.112
	c-1.808,0.72-3.576,1.504-5.312,2.344c-0.848,0.408-1.704,0.808-2.536,1.248c-1.264,0.672-2.472,1.432-3.696,2.168
	c-1.712,1.024-3.368,2.136-5,3.288c-2.52,1.784-4.912,3.728-7.208,5.784c-0.872,0.776-1.776,1.512-2.608,2.328
	c-1.168,1.136-2.28,2.32-3.384,3.512c-1.68,1.816-3.312,3.68-4.8,5.664C126.04,373.384,120,389.968,120,408v30.584V472h240v-33.416
	V408C360,389.968,353.96,373.384,343.888,360z"/>
<g>
	<polygon style="fill:#DCDCDC;" points="240,368 280,328 240,328 200,328 	"/>
	<polygon style="fill:#DCDCDC;" points="224,424 240,440 256,424 256,392 240,368 224,392 	"/>
</g>
<path style="fill:#143446;" d="M479.216,221.472c-0.192-2.488-0.376-4.976-0.64-7.448c-0.24-2.232-0.552-4.456-0.848-6.672
	c-0.272-1.976-0.544-3.952-0.856-5.912c-0.392-2.408-0.824-4.808-1.288-7.2c-0.344-1.76-0.704-3.504-1.08-5.248
	c-0.528-2.448-1.08-4.888-1.696-7.32c-0.432-1.72-0.904-3.416-1.376-5.12c-0.656-2.376-1.296-4.744-2.024-7.096
	c-0.616-1.992-1.304-3.96-1.968-5.928c-0.84-2.48-1.68-4.968-2.6-7.424c-1.264-3.376-2.584-6.728-3.992-10.024
	c-0.64-1.504-1.352-2.984-2.024-4.472c-1.104-2.448-2.224-4.888-3.408-7.288c-0.312-0.632-0.576-1.272-0.888-1.904
	c-0.088-0.176-0.232-0.312-0.336-0.488C414.576,53.744,333.472,0,240,0S65.424,53.744,25.816,131.92
	c-0.104,0.168-0.248,0.304-0.336,0.488c-0.312,0.632-0.576,1.272-0.888,1.904c-1.184,2.4-2.296,4.84-3.408,7.288
	c-0.672,1.496-1.384,2.976-2.024,4.472c-1.408,3.304-2.728,6.648-3.992,10.024c-0.92,2.456-1.76,4.944-2.6,7.424
	c-0.664,1.976-1.352,3.936-1.968,5.928c-0.728,2.352-1.368,4.728-2.024,7.096c-0.464,1.704-0.944,3.4-1.376,5.12
	c-0.608,2.432-1.16,4.872-1.696,7.32c-0.376,1.744-0.744,3.488-1.08,5.248c-0.464,2.392-0.896,4.792-1.288,7.2
	c-0.32,1.96-0.592,3.936-0.856,5.912c-0.304,2.224-0.608,4.44-0.848,6.672c-0.264,2.464-0.456,4.96-0.64,7.448
	c-0.136,1.8-0.312,3.584-0.408,5.384C0.136,231.216,0,235.592,0,240c0,2.32,0.08,4.616,0.16,6.92l0.048,1.352
	c0.016,0.56,0.088,1.112,0.112,1.672c0.168,4.16,0.44,8.288,0.816,12.4c0.072,0.784,0.144,1.56,0.224,2.336
	c0.472,4.688,1.08,9.336,1.816,13.944c0.016,0.08,0.024,0.168,0.04,0.248C14.088,346.312,52.96,405.656,112,442.92V472
	c0,4.416,3.584,8,8,8h240c4.416,0,8-3.584,8-8v-29.08c59.04-37.264,97.912-96.608,108.776-164.04c0.016-0.08,0.024-0.168,0.04-0.248
	c0.736-4.616,1.344-9.264,1.816-13.944c0.08-0.776,0.152-1.56,0.224-2.336c0.376-4.112,0.648-8.248,0.816-12.4
	c0.024-0.56,0.088-1.112,0.112-1.672l0.048-1.352C479.92,244.616,480,242.32,480,240c0-4.408-0.136-8.784-0.376-13.136
	C479.528,225.056,479.352,223.272,479.216,221.472z M232,394.424l8-12l8,12v26.264l-8,8l-8-8V394.424z M240,356.688L219.312,336H240
	h20.688L240,356.688z M16.328,228.072c0.096-1.864,0.28-3.704,0.424-5.552c0.152-2.04,0.288-4.08,0.504-6.104
	c0.24-2.304,0.56-4.576,0.872-6.856c0.208-1.536,0.4-3.08,0.64-4.608c0.384-2.448,0.84-4.872,1.304-7.296
	c0.256-1.352,0.512-2.704,0.792-4.04c0.52-2.44,1.088-4.864,1.68-7.272c0.336-1.352,0.672-2.704,1.032-4.048
	c0.616-2.32,1.272-4.616,1.968-6.904c0.456-1.496,0.928-2.992,1.416-4.48c0.68-2.104,1.384-4.192,2.128-6.264
	c0.632-1.76,1.304-3.504,1.984-5.248c0.696-1.808,1.392-3.616,2.136-5.4c0.896-2.152,1.872-4.28,2.84-6.408
	c0.544-1.192,1.056-2.4,1.624-3.584h88.224C113.064,172.92,104,205.536,104,240H16C16,236,16.12,232.032,16.328,228.072z
	 M443.952,147.56c0.976,2.144,1.952,4.28,2.856,6.44c0.744,1.776,1.432,3.584,2.128,5.392c0.68,1.744,1.352,3.488,1.984,5.24
	c0.744,2.08,1.448,4.184,2.136,6.288c0.48,1.48,0.96,2.968,1.408,4.464c0.688,2.288,1.344,4.592,1.968,6.904
	c0.36,1.344,0.696,2.696,1.032,4.048c0.592,2.408,1.168,4.832,1.68,7.272c0.28,1.344,0.536,2.696,0.792,4.04
	c0.464,2.424,0.92,4.848,1.304,7.296c0.24,1.52,0.424,3.056,0.632,4.584c0.312,2.288,0.632,4.576,0.88,6.888
	c0.208,2.008,0.344,4.04,0.496,6.064c0.144,1.864,0.328,3.712,0.424,5.584C463.88,232.032,464,236,464,240h-88
	c0-34.464-9.064-67.08-21.88-96h88.224C442.904,145.176,443.416,146.376,443.952,147.56z M360,240h-52.176
	c-9.176-26.04-32.496-44.456-59.824-47.504V144h88.504C350.384,173.24,360,205.816,360,240z M194.968,320.144
	c-0.36,0.024-0.712,0.088-1.072,0.112c-0.768,0.056-1.528,0.096-2.296,0.168c-0.776,0.072-1.536,0.2-2.304,0.296
	c-0.576,0.072-1.152,0.136-1.72,0.216c-0.696,0.096-1.392,0.152-2.08,0.264c-0.76,0.128-1.504,0.296-2.256,0.448
	c-0.768,0.152-1.536,0.32-2.296,0.496c-1.184,0.264-2.376,0.488-3.544,0.792c-0.704,0.184-1.384,0.432-2.08,0.632
	c-0.136,0.04-0.264,0.08-0.4,0.12c-0.624,0.184-1.256,0.368-1.872,0.576c-1.176,0.376-2.352,0.76-3.512,1.184
	c-0.976,0.36-1.936,0.768-2.904,1.168c-0.008,0-0.016,0.008-0.024,0.008c-0.392,0.16-0.792,0.304-1.176,0.472
	c-1.184,0.512-2.352,1.056-3.52,1.616c-1,0.48-1.984,0.976-2.96,1.488c-1.536,0.816-3.032,1.688-4.52,2.6
	c-0.88,0.536-1.768,1.048-2.624,1.616c-1.944,1.28-3.84,2.656-5.688,4.104c-0.328,0.256-0.672,0.472-0.992,0.736
	c-0.04,0.032-0.08,0.056-0.12,0.088C131.16,311,123.104,283.08,120.784,256h47.696c-0.32,2.688-0.48,5.36-0.48,8
	C168,286.672,178.536,306.936,194.968,320.144z M184,264c0-4.544,0.624-9.256,1.84-14c6.376-24.728,28.648-42,54.16-42
	s47.784,17.272,54.16,42c1.216,4.744,1.84,9.456,1.84,14c0,30.88-25.12,56-56,56S184,294.88,184,264z M335,339.344
	c-0.04-0.032-0.08-0.056-0.12-0.088c-0.32-0.256-0.672-0.48-0.992-0.736c-1.848-1.448-3.744-2.816-5.688-4.104
	c-0.856-0.568-1.744-1.08-2.624-1.616c-1.488-0.912-2.992-1.784-4.528-2.6c-0.976-0.52-1.96-1.008-2.96-1.488
	c-1.168-0.56-2.336-1.104-3.52-1.616c-0.392-0.168-0.784-0.312-1.176-0.472c-0.008,0-0.016-0.008-0.024-0.008
	c-0.968-0.4-1.92-0.8-2.904-1.168c-1.16-0.424-2.336-0.808-3.512-1.184c-0.624-0.2-1.248-0.384-1.872-0.576
	c-0.136-0.04-0.264-0.08-0.4-0.12c-0.696-0.2-1.376-0.448-2.08-0.632c-1.168-0.312-2.36-0.536-3.544-0.792
	c-0.76-0.168-1.528-0.344-2.296-0.496c-0.752-0.144-1.496-0.32-2.256-0.448c-0.688-0.112-1.392-0.168-2.08-0.264
	c-0.576-0.08-1.152-0.152-1.728-0.216c-0.768-0.096-1.528-0.216-2.304-0.296c-0.76-0.072-1.528-0.12-2.296-0.168
	c-0.36-0.024-0.712-0.096-1.072-0.112C301.464,306.936,312,286.672,312,264c0-2.64-0.16-5.312-0.472-8h47.696
	C356.912,283.08,348.856,311,335,339.344z M248,128V25.888c18.864,17.776,54.336,54.64,80.328,102.112H248z M232,25.888V128h-80.328
	C177.664,80.528,213.136,43.664,232,25.888z M232,144v48.496c-27.32,3.048-50.64,21.464-59.824,47.504H120
	c0-34.184,9.616-66.76,23.496-96H232z M16.632,256h88.056c2.44,30.976,11.984,62.848,28.36,95.032c-0.28,0.336-0.6,0.632-0.88,0.968
	H45.976C29.096,322.792,19.032,289.848,16.632,256z M346.944,351.032c16.376-32.184,25.92-64.056,28.36-95.032h88.056
	c-2.4,33.848-12.464,66.792-29.344,96h-86.184C347.552,351.664,347.232,351.36,346.944,351.032z M433.864,128H346.44
	c-11.184-21.84-24.072-41.152-36.08-56.896c-17.968-23.568-35.784-42.056-48.272-54C335.496,24.32,398.568,67.144,433.864,128z
	 M217.912,17.096c-12.488,11.944-30.304,30.432-48.272,54c-12,15.744-24.896,35.056-36.08,56.896H46.136
	C81.432,67.144,144.504,24.32,217.912,17.096z M55.952,368h65.76c-6.16,12.016-9.712,25.592-9.712,40v15.856
	C89.768,408.416,70.928,389.464,55.952,368z M352,464H128v-25.416V408c0-16.36,5.544-31.416,14.776-43.52
	c1.528-2.008,3.152-3.92,4.856-5.736c0.184-0.2,0.36-0.408,0.552-0.608c1.848-1.928,3.784-3.752,5.8-5.448
	c0.368-0.312,0.768-0.568,1.136-0.872c1.632-1.32,3.312-2.576,5.04-3.744c0.256-0.168,0.528-0.312,0.784-0.48
	c0.68-0.44,1.376-0.84,2.072-1.256c1.192-0.72,2.392-1.44,3.624-2.088c1.136-0.6,2.304-1.136,3.472-1.68
	c1.136-0.52,2.272-1.016,3.44-1.48c1.2-0.472,2.408-0.92,3.64-1.336c1.264-0.424,2.536-0.792,3.824-1.144
	c1.152-0.32,2.304-0.64,3.488-0.896c1.552-0.344,3.128-0.592,4.712-0.824c0.968-0.144,1.92-0.336,2.896-0.44
	c1.568-0.168,3.168-0.208,4.76-0.272l32.84,32.84l-12.36,18.544c-0.88,1.312-1.352,2.864-1.352,4.44v32
	c0,2.12,0.84,4.16,2.344,5.656l16,16c1.56,1.56,3.608,2.344,5.656,2.344s4.096-0.784,5.656-2.344l16-16
	C263.16,428.16,264,426.12,264,424v-32c0-1.576-0.472-3.128-1.344-4.44l-12.36-18.544l32.84-32.84
	c1.592,0.072,3.192,0.104,4.76,0.272c0.976,0.104,1.928,0.296,2.896,0.44c1.584,0.24,3.16,0.488,4.712,0.824
	c1.176,0.256,2.328,0.584,3.488,0.896c1.288,0.352,2.56,0.72,3.824,1.144c1.232,0.416,2.44,0.856,3.64,1.336
	c1.16,0.456,2.304,0.96,3.44,1.48c1.168,0.536,2.336,1.08,3.472,1.68c1.232,0.648,2.432,1.368,3.624,2.088
	c0.704,0.424,1.416,0.832,2.104,1.28c0.248,0.16,0.504,0.296,0.752,0.464c1.736,1.168,3.408,2.424,5.048,3.744
	c0.376,0.296,0.768,0.56,1.136,0.864c2.016,1.696,3.952,3.512,5.8,5.448c0.192,0.2,0.36,0.408,0.552,0.608
	c1.696,1.816,3.32,3.728,4.856,5.736C346.456,376.584,352,391.64,352,408v30.584V464z M368,423.856V408
	c0-14.408-3.552-27.984-9.712-40h65.76C409.072,389.464,390.232,408.416,368,423.856z"/>
<g>
</g>
<g>
</g>
<g>
</g>
<g>
</g>
<g>
</g>
<g>
</g>
<g>
</g>
<g>
</g>
<g>
</g>
<g>
</g>
<g>
</g>
<g>
</g>
<g>
</g>
<g>
</g>
<g>
</g>
</svg>
