<?xml version="1.0"?>
<svg xmlns="http://www.w3.org/2000/svg" id="Layer_1" data-name="Layer 1" viewBox="0 0 512 512" width="512" height="512"><title>Cloud to computer</title><path d="M488,418.16v20a19.994,19.994,0,0,1-20,20H308a19.994,19.994,0,0,1-20-20v-20Z" style="fill:#e48e66"/><path d="M488,328.16v90H288v-90a20,20,0,0,1,20-20H468A20,20,0,0,1,488,328.16Z" style="fill:#f8ec7d"/><path d="M356,112.14a38.478,38.478,0,0,1-38.46,38.47H194.46a38.463,38.463,0,0,1-13.78-74.37c-.04-.85-.06-1.7-.06-2.56a53.84,53.84,0,0,1,95.14-34.54,38.451,38.451,0,0,1,49.43,35.31A38.471,38.471,0,0,1,356,112.14Z" style="fill:#6fe3ff"/><path d="M224,418.16v20a19.994,19.994,0,0,1-20,20H44a19.994,19.994,0,0,1-20-20v-20Z" style="fill:#e48e66"/><path d="M224,328.16v90H24v-90a20,20,0,0,1,20-20H204A20,20,0,0,1,224,328.16Z" style="fill:#f8ec7d"/><path d="M118,464.16v22H92a6,6,0,0,0,0,12h64a6,6,0,1,0,0-12H130v-22h74a26.029,26.029,0,0,0,26-26v-110a26.029,26.029,0,0,0-26-26H44a26.029,26.029,0,0,0-26,26v110a26.029,26.029,0,0,0,26,26Zm-74-150H204a14.015,14.015,0,0,1,14,14v84H30v-84A14.015,14.015,0,0,1,44,314.16Zm-14,124v-14H218v14a14.015,14.015,0,0,1-14,14H44A14.015,14.015,0,0,1,30,438.16Z" style="fill:#63316d"/><path d="M468,302.16H308a26.029,26.029,0,0,0-26,26v110a26.029,26.029,0,0,0,26,26h74v22H356a6,6,0,0,0,0,12h64a6,6,0,0,0,0-12H394v-22h74a26.029,26.029,0,0,0,26-26v-110A26.029,26.029,0,0,0,468,302.16Zm-160,12H468a14.015,14.015,0,0,1,14,14v84H294v-84A14.015,14.015,0,0,1,308,314.16Zm160,138H308a14.015,14.015,0,0,1-14-14v-14H482v14A14.015,14.015,0,0,1,468,452.16Z" style="fill:#63316d"/><path d="M194.46,156.61H317.54A44.466,44.466,0,0,0,330.783,69.7a44.474,44.474,0,0,0-52.965-37.259A59.84,59.84,0,0,0,174.635,72.344,44.467,44.467,0,0,0,194.46,156.61ZM171.512,89.193a32.1,32.1,0,0,1,11.308-7.348,6,6,0,0,0,3.853-5.887c-.035-.756-.053-1.513-.053-2.278a47.839,47.839,0,0,1,84.537-30.69,6,6,0,0,0,6.331,1.9,32.45,32.45,0,0,1,41.707,29.8A6,6,0,0,0,324,80.332a32.465,32.465,0,0,1-6.463,64.278H194.46a32.46,32.46,0,0,1-22.948-55.417Z" style="fill:#63316d"/><path d="M197.5,185.91a6,6,0,0,0,6-6V173.7a6,6,0,0,0-12,0v6.21A6,6,0,0,0,197.5,185.91Z" style="fill:#63316d"/><path d="M191.5,204.95a6,6,0,0,0,12,0v-5.69a6,6,0,0,0-12,0Z" style="fill:#63316d"/><path d="M191.5,270.029l-21.382-19.9a6,6,0,0,0-8.176,8.784l31.47,29.29a6,6,0,0,0,8.176,0l31.47-29.29a6,6,0,0,0-8.176-8.784l-21.382,19.9V225.17a6,6,0,1,0-12,0Z" style="fill:#63316d"/><path d="M314.5,271.6a6,6,0,0,0-6,6v6.21a6,6,0,0,0,12,0V277.6A6,6,0,0,0,314.5,271.6Z" style="fill:#63316d"/><path d="M320.5,252.56a6,6,0,1,0-12,0v5.69a6,6,0,0,0,12,0Z" style="fill:#63316d"/><path d="M320.5,187.481l21.382,19.9a6,6,0,0,0,8.176-8.784l-31.47-29.29a6,6,0,0,0-8.176,0l-31.47,29.29a6,6,0,0,0,8.176,8.784l21.382-19.9V232.33a6,6,0,1,0,12,0Z" style="fill:#63316d"/></svg>
