<svg height="512pt" viewBox="-56 0 512 512.00103" width="512pt" xmlns="http://www.w3.org/2000/svg"><path d="m383.613281 281.3125h-353.558593v-104.53125c0-97.636719 79.144531-176.78125 176.777343-176.78125 97.632813 0 176.78125 79.144531 176.78125 176.78125zm0 0" fill="#3e4f61"/><path d="m123.101562 356.011719c0 33.992187-27.558593 61.546875-61.550781 61.546875-33.992187 0-61.550781-27.554688-61.550781-61.546875 0-33.996094 27.558594-61.550781 61.550781-61.550781 33.992188 0 61.550781 27.554687 61.550781 61.550781zm0 0" fill="#dd6642"/><path d="m85.011719 326.449219h-34.316407c-20.226562 0-36.621093-16.394531-36.621093-36.621094v-37.199219c0-20.222656 16.394531-36.617187 36.621093-36.617187h34.316407zm0 0" fill="#6a829a"/><path d="m328.652344 326.449219h34.320312c20.222656 0 36.617188-16.394531 36.617188-36.621094v-37.199219c0-20.222656-16.394532-36.617187-36.617188-36.617187h-34.320312zm0 0" fill="#6a829a"/><path d="m319.90625 512h-226.144531c-26.359375 0-47.730469-21.371094-47.730469-47.730469v-27.183593c0-42.222657 34.226562-76.449219 76.449219-76.449219h168.703125c42.222656 0 76.453125 34.226562 76.453125 76.449219v27.183593c0 26.363281-21.371094 47.730469-47.730469 47.730469zm0 0" fill="#76e7e7"/><path d="m195.207031 471.902344c1.167969-16.21875 9.457031-30.992188 22.425781-40.800782 19.039063-14.398437 32.375-33.042968 32.375-33.042968v-37.421875h-127.527343c-42.222657 0-76.449219 34.226562-76.449219 76.449219v27.183593c0 26.359375 21.371094 47.730469 47.730469 47.730469h104.175781c-3.300781-14.53125-3.566406-28.507812-2.730469-40.097656zm0 0" fill="#2eddda"/><path d="m115.769531 360.925781c-39.082031 3.398438-69.738281 36.199219-69.738281 76.160157v27.183593c0 26.363281 21.367188 47.730469 47.726562 47.730469h81.117188c0-9.769531-4.390625-38.992188-4.390625-38.992188zm0 0" fill="#4a66a0"/><path d="m297.894531 360.925781c39.082031 3.394531 69.742188 36.199219 69.742188 76.160157v27.183593c0 26.359375-21.371094 47.730469-47.730469 47.730469h-81.113281c0-9.769531 4.386719-38.996094 4.386719-38.996094zm0 0" fill="#4a66a0"/><path d="m106.390625 344.125s-22.667969 5.152344-39.863281 23.542969c-7.835938 8.378906-5.796875 21.871093 4.21875 27.460937 14.128906 7.886719 32.164062 17.964844 32.164062 17.964844l-7.0625 11.507812c-5.5 8.960938-.347656 20.640626 9.976563 22.652344 21.171875 4.128906 51.976562 12.195313 64.660156 25.753906 0-.003906-8.359375-96.835937-64.09375-128.882812zm0 0" fill="#7888af"/><path d="m307.273438 344.125s22.667968 5.152344 39.863281 23.542969c7.835937 8.378906 5.800781 21.871093-4.21875 27.460937-14.125 7.886719-32.160157 17.964844-32.160157 17.964844l7.058594 11.507812c5.503906 8.960938.347656 20.640626-9.972656 22.652344-21.175781 4.128906-51.980469 12.195313-64.664062 25.753906 0-.003906 8.363281-96.835937 64.09375-128.882812zm0 0" fill="#7888af"/><path d="m235.355469 399.042969h-57.042969c-60.136719 0-108.882812-48.75-108.882812-108.882813v-80.628906c0-75.886719 61.515624-137.40625 137.402343-137.40625s137.40625 61.519531 137.40625 137.40625v80.628906c0 60.132813-48.75 108.882813-108.882812 108.882813zm0 0" fill="#ffddcf"/><path d="m133.679688 226.371094c-10.699219-90.972656 76.574218-139.398438 101.550781-151.308594-9.160157-1.921875-18.664063-2.9375-28.398438-2.9375-75.886719 0-137.402343 61.519531-137.402343 137.40625v80.628906c0 57.472656 44.546874 104.546875 100.988281 108.601563-46.652344-25.761719-26.707031-87.09375-36.738281-172.390625zm0 0" fill="#ffcbbe"/><path d="m149.242188 309.488281c0-9.367187-9.53125-16.960937-21.292969-16.960937s-21.296875 7.59375-21.296875 16.960937c0 9.363281 9.535156 16.957031 21.296875 16.957031s21.292969-7.59375 21.292969-16.957031zm0 0" fill="#fdb2db"/><path d="m307.015625 309.488281c0-9.367187-9.535156-16.960937-21.296875-16.960937s-21.296875 7.59375-21.296875 16.960937c0 9.363281 9.535156 16.957031 21.296875 16.957031s21.296875-7.59375 21.296875-16.957031zm0 0" fill="#fdb2db"/><g fill="#454545"><path d="m270.601562 306.628906c-4.273437 0-7.738281-3.464844-7.738281-7.738281v-12.847656c0-4.273438 3.464844-7.738281 7.738281-7.738281 4.273438 0 7.738282 3.464843 7.738282 7.738281v12.847656c0 4.273437-3.464844 7.738281-7.738282 7.738281zm0 0"/><path d="m143.066406 306.628906c-4.277344 0-7.738281-3.464844-7.738281-7.738281v-12.847656c0-4.273438 3.460937-7.738281 7.738281-7.738281 4.273438 0 7.738282 3.464843 7.738282 7.738281v12.847656c0 4.273437-3.464844 7.738281-7.738282 7.738281zm0 0"/><path d="m212.117188 291.160156c-1.734376 2.542969-4.257813 2.851563-5.285157 2.851563-1.023437 0-3.59375-.277344-5.285156-2.851563-2.347656-3.574218-7.144531-4.566406-10.714844-2.21875-3.574219 2.34375-4.566406 7.140625-2.21875 10.714844 4.042969 6.15625 10.855469 9.832031 18.21875 9.832031 7.367188 0 14.175781-3.675781 18.222657-9.832031 2.34375-3.574219 1.351562-8.371094-2.21875-10.714844-1.3125-.859375-7.101563-3.089844-10.71875 2.21875zm0 0"/></g><path d="m212.796875 147.910156s41.351563 101.15625 150 102.652344c11.84375.164062 19.03125-12.925781 12.710937-22.941406-5.882812-9.320313-11.386718-22.359375-13.832031-40.183594-6.433593-46.882812-30.335937-126.855469-112.148437-124.097656.003906-.917969-36.730469 84.570312-36.730469 84.570312zm0 0" fill="#dd6642"/><path d="m284.472656 228.925781c40.691406-43.652343 43.265625-100.003906 39.96875-134.453125-16.898437-19.132812-40.894531-32.277344-74.910156-31.132812 0-.917969-36.734375 84.570312-36.734375 84.570312s20.808594 50.894532 71.675781 81.015625zm0 0" fill="#b24e2f"/><path d="m282.832031 139.589844c-32.640625 57.324218-101.167969 127.746094-237.074219 107.386718-11.902343-1.78125-17.472656-15.816406-9.898437-25.167968 11.941406-14.742188 25.480469-37.90625 28.636719-69.707032 5.90625-59.554687 83.097656-127.125 163.601562-114.398437 63.726563 10.070313 77.027344 62.730469 54.734375 101.886719zm0 0" fill="#e7896e"/><path d="m149.242188 378.441406s-29.988282 2.21875-60.34375-56.34375c-2.625-5.066406-7.757813-8.234375-13.9375-8.234375-10.167969 0-17.355469 10.007813-14.277344 19.699219 7.558594 23.828125 28.914062 62.90625 88.558594 75.09375-.429688.03125 0-30.214844 0-30.214844zm0 0" fill="#334151"/><path d="m181.148438 395.941406c0 14.6875-11.910157 26.597656-26.601563 26.597656s-26.597656-11.910156-26.597656-26.597656c0-14.691406 11.90625-26.601562 26.597656-26.601562s26.601563 11.910156 26.601563 26.601562zm0 0" fill="#516980"/></svg>